<?xml version="1.0" encoding="utf-8"?>
<!-- Generator: Adobe Illustrator 18.1.1, SVG Export Plug-In . SVG Version: 6.00 Build 0)  -->
<svg version="1.1" id="Layer_1" xmlns="http://www.w3.org/2000/svg" xmlns:xlink="http://www.w3.org/1999/xlink" x="0px" y="0px"
	 viewBox="0 0 62 34" enable-background="new 0 0 62 34" xml:space="preserve">
<rect x="16.5" y="9.5" fill="#B09B4D" width="29.1" height="4.7"/>
<rect x="16.5" y="14.5" fill="#D92128" width="29.1" height="2.7"/>
<path fill="#B09B4D" d="M16.5,17.4c0.8,0,28.3,0,29.1,0c0,1.2-0.7,3.6-1.2,4.7c-0.9,0-26.1,0-26.7,0C17.1,21,16.5,18.6,16.5,17.4z"
	/>
<path fill="#D92128" d="M17.8,22.3c0.6,0,26,0,26.5,0c-2.3,6.1-9,10.3-13.4,11.4C26.6,32.6,20.1,28.4,17.8,22.3z"/>
<path fill="#D92128" d="M16.5,0.4v8.9h29.1V0.4H16.5z M22.1,7.4c-1.6,0-3-1.3-3-3s1.3-3,3-3s3,1.3,3,3S23.7,7.4,22.1,7.4z M30.9,7.5
	c-1.7,0-3-1.4-3-3s1.4-3,3-3c1.7,0,3,1.4,3,3S32.6,7.5,30.9,7.5z M40.1,7.4c-1.6,0-3-1.3-3-3s1.3-3,3-3c1.6,0,3,1.3,3,3
	S41.8,7.4,40.1,7.4z"/>
<circle fill="#B09B4D" cx="22.1" cy="4.5" r="2.7"/>
<circle fill="#B09B4D" cx="30.9" cy="4.5" r="2.7"/>
<circle fill="#B09B4D" cx="40.1" cy="4.5" r="2.7"/>
</svg>
