<?xml version="1.0" encoding="utf-8"?>
<!-- Generator: Adobe Illustrator 18.1.1, SVG Export Plug-In . SVG Version: 6.00 Build 0)  -->
<svg version="1.1" id="Layer_1" xmlns="http://www.w3.org/2000/svg" xmlns:xlink="http://www.w3.org/1999/xlink" x="0px" y="0px"
	 viewBox="0 0 28 32" enable-background="new 0 0 28 32" xml:space="preserve">
<rect x="1.2" y="9.2" fill="#AF9A4D" width="25.4" height="4.1"/>
<rect x="1.2" y="13.6" fill="#D82128" width="25.4" height="2.3"/>
<path fill="#AF9A4D" d="M1.2,16.1c0.7,0,24.7,0,25.4,0c0,1.1-0.6,3.1-1.1,4.1c-0.8,0-22.7,0-23.3,0C1.8,19.2,1.2,17.2,1.2,16.1z"/>
<path fill="#D82128" d="M2.4,20.4c0.5,0,22.6,0,23.1,0c-2,5.3-7.9,9-11.7,10C10,29.4,4.4,25.7,2.4,20.4z"/>
<path fill="#D82128" d="M1.2,1.3V9h25.4V1.3H1.2z M6.1,7.4c-1.4,0-2.6-1.2-2.6-2.6s1.2-2.6,2.6-2.6s2.6,1.2,2.6,2.6S7.5,7.4,6.1,7.4
	z M13.9,7.5c-1.5,0-2.7-1.2-2.7-2.7s1.2-2.7,2.7-2.7s2.7,1.2,2.7,2.7S15.3,7.5,13.9,7.5z M21.9,7.4c-1.4,0-2.6-1.2-2.6-2.6
	s1.2-2.6,2.6-2.6s2.6,1.2,2.6,2.6S23.3,7.4,21.9,7.4z"/>
<circle fill="#AF9A4D" cx="6.1" cy="4.8" r="2.3"/>
<circle fill="#AF9A4D" cx="13.9" cy="4.8" r="2.3"/>
<circle fill="#AF9A4D" cx="21.9" cy="4.8" r="2.3"/>
</svg>
